<mxfile host="65bd71144e">
    <diagram id="eNZUdqapN_N5e5wbpSTe" name="Page-1">
        <mxGraphModel dx="343" dy="342" grid="1" gridSize="10" guides="1" tooltips="1" connect="1" arrows="1" fold="1" page="1" pageScale="1" pageWidth="850" pageHeight="1100" math="0" shadow="0">
            <root>
                <mxCell id="0"/>
                <mxCell id="1" parent="0"/>
                <mxCell id="mux_a" value="MUX" style="rhombus;whiteSpace=wrap;html=1;fillColor=#f5f5f5;strokeColor=#666666;fontSize=10;" vertex="1" parent="1">
                    <mxGeometry x="520" y="240" width="20" height="20" as="geometry"/>
                </mxCell>
                <mxCell id="mux_b" value="MUX" style="rhombus;whiteSpace=wrap;html=1;fillColor=#f5f5f5;strokeColor=#666666;fontSize=10;" vertex="1" parent="1">
                    <mxGeometry x="520" y="270" width="20" height="20" as="geometry"/>
                </mxCell>
                <mxCell id="jalr_mux" value="MUX" style="rhombus;whiteSpace=wrap;html=1;fillColor=#f5f5f5;strokeColor=#666666;fontSize=10;" vertex="1" parent="1">
                    <mxGeometry x="680" y="200" width="20" height="20" as="geometry"/>
                </mxCell>
                <mxCell id="jal_mux" value="MUX" style="rhombus;whiteSpace=wrap;html=1;fillColor=#f5f5f5;strokeColor=#666666;fontSize=10;" vertex="1" parent="1">
                    <mxGeometry x="680" y="230" width="20" height="20" as="geometry"/>
                </mxCell>
                <mxCell id="and_gate" value="AND" style="ellipse;whiteSpace=wrap;html=1;fillColor=#f5f5f5;strokeColor=#666666;fontSize=10;" vertex="1" parent="1">
                    <mxGeometry x="680" y="260" width="30" height="20" as="geometry"/>
                </mxCell>
                <mxCell id="pc_mux" value="4-to-1&#10;MUX" style="rhombus;whiteSpace=wrap;html=1;fillColor=#f5f5f5;strokeColor=#666666;fontSize=10;" vertex="1" parent="1">
                    <mxGeometry x="720" y="180" width="40" height="30" as="geometry"/>
                </mxCell>
                <mxCell id="ram" value="RAM" style="rounded=1;whiteSpace=wrap;html=1;fillColor=#d5e8d4;strokeColor=#82b366;fontSize=12;fontStyle=1;" vertex="1" parent="1">
                    <mxGeometry x="850" y="250" width="100" height="80" as="geometry"/>
                </mxCell>
                <mxCell id="we_label" value="we" style="text;html=1;strokeColor=none;fillColor=none;align=left;verticalAlign=middle;whiteSpace=wrap;rounded=0;fontSize=10;" vertex="1" parent="1">
                    <mxGeometry x="800" y="230" width="20" height="20" as="geometry"/>
                </mxCell>
                <mxCell id="addr_ram_label" value="Addr" style="text;html=1;strokeColor=none;fillColor=none;align=left;verticalAlign=middle;whiteSpace=wrap;rounded=0;fontSize=10;" vertex="1" parent="1">
                    <mxGeometry x="800" y="260" width="30" height="20" as="geometry"/>
                </mxCell>
                <mxCell id="wdata_label" value="WData" style="text;html=1;strokeColor=none;fillColor=none;align=left;verticalAlign=middle;whiteSpace=wrap;rounded=0;fontSize=10;" vertex="1" parent="1">
                    <mxGeometry x="800" y="290" width="40" height="20" as="geometry"/>
                </mxCell>
                <mxCell id="rdata_label" value="RData" style="text;html=1;strokeColor=none;fillColor=none;align=left;verticalAlign=middle;whiteSpace=wrap;rounded=0;fontSize=10;" vertex="1" parent="1">
                    <mxGeometry x="970" y="280" width="30" height="20" as="geometry"/>
                </mxCell>
                <mxCell id="wb_mux" value="5-to-1&#10;MUX" style="rhombus;whiteSpace=wrap;html=1;fillColor=#f5f5f5;strokeColor=#666666;fontSize=10;" vertex="1" parent="1">
                    <mxGeometry x="1050" y="250" width="40" height="30" as="geometry"/>
                </mxCell>
                <mxCell id="wd_out_label" value="WD" style="text;html=1;strokeColor=none;fillColor=none;align=left;verticalAlign=middle;whiteSpace=wrap;rounded=0;fontSize=10;" vertex="1" parent="1">
                    <mxGeometry x="1110" y="260" width="20" height="20" as="geometry"/>
                </mxCell>
                <mxCell id="fetch_label" value="Fetch" style="text;html=1;strokeColor=none;fillColor=none;align=center;verticalAlign=middle;whiteSpace=wrap;rounded=0;fontSize=14;fontStyle=1;" vertex="1" parent="1">
                    <mxGeometry x="80" y="450" width="60" height="30" as="geometry"/>
                </mxCell>
                <mxCell id="decode_label" value="Decode" style="text;html=1;strokeColor=none;fillColor=none;align=center;verticalAlign=middle;whiteSpace=wrap;rounded=0;fontSize=14;fontStyle=1;" vertex="1" parent="1">
                    <mxGeometry x="330" y="450" width="60" height="30" as="geometry"/>
                </mxCell>
                <mxCell id="execute_label" value="Execute" style="text;html=1;strokeColor=none;fillColor=none;align=center;verticalAlign=middle;whiteSpace=wrap;rounded=0;fontSize=14;fontStyle=1;" vertex="1" parent="1">
                    <mxGeometry x="580" y="450" width="60" height="30" as="geometry"/>
                </mxCell>
                <mxCell id="memaccess_label" value="MemAccess" style="text;html=1;strokeColor=none;fillColor=none;align=center;verticalAlign=middle;whiteSpace=wrap;rounded=0;fontSize=14;fontStyle=1;" vertex="1" parent="1">
                    <mxGeometry x="880" y="450" width="80" height="30" as="geometry"/>
                </mxCell>
                <mxCell id="writeback_label" value="Write Back" style="text;html=1;strokeColor=none;fillColor=none;align=center;verticalAlign=middle;whiteSpace=wrap;rounded=0;fontSize=14;fontStyle=1;" vertex="1" parent="1">
                    <mxGeometry x="1050" y="450" width="80" height="30" as="geometry"/>
                </mxCell>
                <mxCell id="divider1" value="" style="endArrow=none;html=1;rounded=0;strokeWidth=3;strokeColor=#ff0000;" edge="1" parent="1">
                    <mxGeometry width="50" height="50" relative="1" as="geometry">
                        <mxPoint x="200" y="100" as="sourcePoint"/>
                        <mxPoint x="200" y="500" as="targetPoint"/>
                    </mxGeometry>
                </mxCell>
                <mxCell id="divider2" value="" style="endArrow=none;html=1;rounded=0;strokeWidth=3;strokeColor=#ff0000;" edge="1" parent="1">
                    <mxGeometry width="50" height="50" relative="1" as="geometry">
                        <mxPoint x="450" y="100" as="sourcePoint"/>
                        <mxPoint x="450" y="500" as="targetPoint"/>
                    </mxGeometry>
                </mxCell>
                <mxCell id="divider3" value="" style="endArrow=none;html=1;rounded=0;strokeWidth=3;strokeColor=#ff0000;" edge="1" parent="1">
                    <mxGeometry width="50" height="50" relative="1" as="geometry">
                        <mxPoint x="700" y="100" as="sourcePoint"/>
                        <mxPoint x="700" y="500" as="targetPoint"/>
                    </mxGeometry>
                </mxCell>
                <mxCell id="divider4" value="" style="endArrow=none;html=1;rounded=0;strokeWidth=3;strokeColor=#ff0000;" edge="1" parent="1">
                    <mxGeometry width="50" height="50" relative="1" as="geometry">
                        <mxPoint x="950" y="100" as="sourcePoint"/>
                        <mxPoint x="950" y="500" as="targetPoint"/>
                    </mxGeometry>
                </mxCell>
                <mxCell id="divider5" value="" style="endArrow=none;html=1;rounded=0;strokeWidth=3;strokeColor=#ff0000;" edge="1" parent="1">
                    <mxGeometry width="50" height="50" relative="1" as="geometry">
                        <mxPoint x="1200" y="100" as="sourcePoint"/>
                        <mxPoint x="1200" y="500" as="targetPoint"/>
                    </mxGeometry>
                </mxCell>
                <mxCell id="annotation1" value="Control Unit FSM State 제어," style="text;html=1;strokeColor=none;fillColor=none;align=left;verticalAlign=middle;whiteSpace=wrap;rounded=0;fontSize=10;" vertex="1" parent="1">
                    <mxGeometry x="300" y="500" width="150" height="20" as="geometry"/>
                </mxCell>
                <mxCell id="annotation2" value="명령어 Type별." style="text;html=1;strokeColor=none;fillColor=none;align=left;verticalAlign=middle;whiteSpace=wrap;rounded=0;fontSize=10;" vertex="1" parent="1">
                    <mxGeometry x="300" y="520" width="100" height="20" as="geometry"/>
                </mxCell>
                <mxCell id="title" value="CPU 5-Stage Pipeline Architecture" style="text;html=1;strokeColor=none;fillColor=none;align=center;verticalAlign=middle;whiteSpace=wrap;rounded=0;fontSize=18;fontStyle=1;" vertex="1" parent="1">
                    <mxGeometry x="600" y="30" width="300" height="30" as="geometry"/>
                </mxCell>
            </root>
        </mxGraphModel>
    </diagram>
</mxfile>